<svg xmlns="http://www.w3.org/2000/svg" width="2048" height="2048" shape-rendering="geometricPrecision" image-rendering="optimizeQuality" fill-rule="evenodd" xmlns:v="https://vecta.io/nano"><defs><clipPath id="A"><path d="M1024 0c565.539 0 1024 458.461 1024 1024s-458.461 1024-1024 1024S0 1589.539 0 1024 458.461 0 1024 0z"/></clipPath></defs><path d="M1024 0c565.539 0 1024 458.461 1024 1024s-458.461 1024-1024 1024S0 1589.539 0 1024 458.461 0 1024 0z" fill="#b0b2ff"/><g clip-path="url(#A)" fill="#8d8ff6"><path d="M1147.33 693.083L2283.22 1828.97l.57 2 .43 2.04.31 2.06.19 2.08.06 2.09-.06 2.1-.17 2.11-.28 2.12-.39 2.11-.49 2.11-.59 2.09-.7 2.08-.78 2.07-.87 2.04-.96 2.02-1.05 1.98-1.12 1.95-1.2 1.92-1.27 1.86-1.33 1.83-1.41 1.77-1.46 1.72-1.53 1.65-1.57 1.6-1.63 1.52-1.68 1.46-1.72 1.38-1.75 1.29-1.8 1.22-1.83 1.13-1.86 1.03-1.88.94L1117.52 750.454l1.88-.938 1.86-1.033 1.83-1.127 1.79-1.214 1.76-1.299 1.72-1.379 1.68-1.454 1.63-1.526 1.57-1.593 1.53-1.657 1.46-1.717 1.41-1.771 1.33-1.823 1.27-1.869 1.2-1.913 1.12-1.95 1.05-1.986.96-2.016.87-2.042.78-2.065.69-2.082.6-2.096.49-2.106.39-2.112.28-2.114.17-2.111.06-2.103-.06-2.093-.19-2.079-.31-2.059-.44-2.036zm-161.725 133.62L2121.49 1962.58l-2.36-1.6-2.36-1.72-2.37-1.83-2.36-1.92-2.36-2.03-2.35-2.1-2.33-2.19-2.32-2.27-2.29-2.33L964.504 808.706l2.298 2.332 2.317 2.265 2.334 2.19 2.348 2.109 2.356 2.022 2.362 1.928 2.365 1.827 2.363 1.718zm486.805 503.047l1135.88 1135.88v.02.03l.01.02v.02.02l.01.02v.03.02L1472.43 1329.93v-.03-.02l-.01-.02v-.02-.02l-.01-.03v-.02z"/><path d="M1472.43 1329.93l1135.88 1135.88-2.2 2.15-2.25 2.12-2.3 2.12-2.34 2.1-2.38 2.1-2.4 2.1-2.42 2.1-2.43 2.11-2.44 2.12-2.43 2.14-2.42 2.16-2.41 2.19-2.38 2.21-2.35 2.25-2.31 2.29-2.27 2.32L1434.7 1364.51l2.27-2.33 2.31-2.28 2.35-2.25 2.38-2.22 2.41-2.18 2.42-2.16 2.43-2.14 2.44-2.12 2.43-2.11 2.42-2.1 2.4-2.1 2.37-2.1 2.35-2.11 2.3-2.11 2.25-2.13z"/><path d="M1434.7 1364.51l1135.88 1135.88-2.63 2.63-2.6 2.56-2.58 2.51-2.56 2.46-2.54 2.41-2.52 2.35-2.52 2.3-2.52 2.26-2.52 2.2-2.52 2.16-2.52 2.11-2.54 2.07-2.56 2.02-2.58 1.97-2.6 1.93-2.63 1.89-2.67 1.85-2.7 1.81-2.74 1.77-2.79 1.73-2.84 1.69-2.89 1.66-2.95 1.62-3.02 1.58-3.08 1.55-3.14 1.52-3.23 1.48-3.3 1.46-3.38 1.42-3.47 1.39-3.57 1.36-3.65 1.34-1135.88-1135.88 3.65-1.34 3.57-1.36 3.47-1.39 3.38-1.43 3.3-1.45 3.22-1.49 3.15-1.51 3.08-1.55 3.01-1.59 2.96-1.62 2.89-1.65 2.84-1.69 2.78-1.73 2.75-1.77 2.7-1.81 2.66-1.85 2.64-1.89 2.6-1.93 2.58-1.98 2.55-2.02 2.54-2.06 2.53-2.11 2.52-2.16 2.52-2.21 2.51-2.25 2.52-2.3 2.53-2.36 2.54-2.4 2.56-2.46 2.58-2.51 2.6-2.57z"/><path d="M1344.34 1425.57l1135.88 1135.88-3.32 1.18-3.33 1.15-3.35 1.13-3.37 1.1-3.37 1.08-3.39 1.06-3.4 1.04-3.41 1.01-3.42 1-3.44.98-3.44.96-3.44.94-3.46.93-3.46.91-3.47.89-3.47.89-3.48.87-3.48.86-3.48.85-3.49.84-3.48.83-3.49.82-3.49.82-3.48.81-3.48.8-3.48.81-3.48.79-3.47.8-3.47.79-3.45.79-3.46.8-3.44.79-1135.89-1135.88 3.45-.8 3.45-.79 3.46-.79 3.47-.79 3.47-.8 3.48-.8 3.48-.8 3.48-.8 3.48-.81 3.49-.82 3.48-.82 3.49-.83 3.49-.84 3.48-.85 3.48-.86 3.48-.87 3.47-.89 3.47-.89 3.46-.92 3.45-.92 3.45-.95 3.44-.96 3.44-.97 3.42-1 3.41-1.01 3.4-1.04 3.39-1.06 3.37-1.08 3.37-1.1 3.34-1.13 3.34-1.15zm-317.45 42.3l1135.88 1135.88-.19.84-.19.84-.17.82-.15.82-.14.8-.12.8-.1.78-.08.77-1135.88-1135.88.08-.77.1-.79.12-.79.14-.8.15-.82.17-.82.19-.84z"/><path d="M1025.75 1474.34l1135.88 1135.88v1.29l.01 1.48.02 1.66.01 1.82.01 1.97.02 2.1v2.23 2.33l-.02 2.42-.02 2.51-.05 2.57-.06 2.63-.07 2.66-.1 2.69-.13 2.7-.15 2.69-.18 2.68-.21 2.65-.25 2.61-.28 2.55-.32 2.47-.36 2.39-.4 2.29-.45 2.18-.5 2.05-.54 1.91-.6 1.76-.65 1.59-.71 1.41-.77 1.21-.83 1-.89.78-1135.88-1135.89.89-.77.83-1 .77-1.22.71-1.4.65-1.59.6-1.76.54-1.91.5-2.05.45-2.18.4-2.29.36-2.39.32-2.48.28-2.54.24-2.61.22-2.65.18-2.68.15-2.7.12-2.7.1-2.68.08-2.67.06-2.62.04-2.57.03-2.51.01-2.42.01-2.34-.01-2.22-.01-2.11-.01-1.97-.01-1.82-.02-1.65-.01-1.48z"/><path d="M1234.19 1454.89l1135.89 1135.88-1.18.28-1.47.39-1.74.51-2 .61-2.23.72-2.46.81-2.67.9-2.86.99-3.04 1.07-3.2 1.14-3.35 1.22-3.47 1.28-3.59 1.33-3.69 1.39-3.77 1.44-3.83 1.48-3.89 1.51-3.92 1.55-3.94 1.57-3.94 1.6-3.94 1.61-3.9 1.61-3.86 1.63-3.79 1.62-3.73 1.61-3.63 1.61-3.52 1.58-3.4 1.56-3.26 1.54-3.1 1.5-2.94 1.46-2.74 1.42-4.84 2.63-4.52 2.63-4.2 2.61-3.92 2.6-3.65 2.57-3.41 2.53-3.18 2.5-2.99 2.45-2.79 2.39-2.64 2.33-2.5 2.26-2.38 2.18-2.28 2.1-2.2 2-2.15 1.91-2.1 1.81-2.1 1.69-2.1 1.57-2.12 1.45-2.18 1.31-2.24 1.17-2.33 1.02-2.44.86-2.58.71-2.72.53-2.9.36-3.09.17-3.3-.02-3.54-.22-3.8-.42-4.07-.64-4.38-.85-1135.88-1135.89 4.37.86 4.08.64 3.79.42 3.54.22 3.31.02 3.09-.18 2.9-.35 2.72-.53 2.58-.71 2.44-.86 2.33-1.03 2.24-1.16 2.17-1.32 2.13-1.44 2.1-1.57 2.09-1.69 2.11-1.81 2.15-1.91 2.2-2 2.28-2.1 2.38-2.19 2.5-2.26 2.63-2.32 2.8-2.4 2.98-2.44 3.19-2.5 3.41-2.53 3.65-2.57 3.92-2.6 4.2-2.61 4.52-2.63 4.84-2.64 2.74-1.41 2.94-1.46 3.1-1.5 3.26-1.54 3.4-1.56 3.52-1.58 3.63-1.61 3.73-1.61 3.79-1.62 3.86-1.63 3.9-1.62 3.93-1.6 3.95-1.6 3.94-1.57 3.92-1.55 3.89-1.51 3.83-1.48 3.77-1.44 3.69-1.39 3.59-1.34 3.47-1.27 3.35-1.22 3.2-1.14 3.04-1.07 2.86-.99 2.67-.9 2.46-.82 2.23-.71 2-.62 1.74-.5 1.47-.4z"/><path d="M1036.51 1541.61L2172.39 2677.5l-.89-.78-1135.88-1135.88zm-19.23 0L2153.16 2677.5l-4.38.85-4.07.64-3.8.42-3.54.22-3.3.02-3.09-.17-2.9-.36-2.72-.53-2.58-.71-2.44-.86-2.33-1.02-2.24-1.17-2.18-1.31-2.12-1.45-2.1-1.57-2.1-1.69-2.1-1.81-2.15-1.91L967.138 1529.21l2.146 1.91 2.108 1.81 2.095 1.69 2.1 1.57 2.126 1.44 2.174 1.32 2.242 1.16 2.331 1.03 2.442.86 2.573.71 2.724.53 2.897.35 3.091.18 3.303-.02 3.54-.22 3.8-.42 4.07-.64zm-59.499-20.95L2093.66 2656.55l-2.64-2.33-2.8-2.39-2.98-2.45-3.18-2.5-3.41-2.53-3.65-2.57-3.92-2.6-4.2-2.61-4.52-2.63-4.84-2.63-2.74-1.42-2.94-1.46-3.1-1.5-3.26-1.54-3.4-1.56-3.52-1.58-3.63-1.61-3.73-1.61-3.79-1.62-3.86-1.63-3.9-1.61-3.94-1.61-3.94-1.6-3.94-1.57-3.92-1.55-3.89-1.51-3.83-1.48-3.77-1.44-3.69-1.39-3.59-1.33-3.47-1.28-3.35-1.22-3.2-1.14-3.04-1.07-2.86-.99-2.67-.9-2.46-.81-2.23-.72-2-.61-1.74-.51-1.47-.39-1.18-.28L819.594 1454.89l1.178.27 1.467.4 1.739.5 1.996.62 2.235.71 2.46.82 2.669.9 2.862.99 3.039 1.07 3.199 1.14 3.347 1.22 3.474 1.27 3.59 1.34 3.687 1.39 3.77 1.44 3.836 1.48 3.886 1.51 3.921 1.55 3.941 1.57 3.943 1.6 3.931 1.6 3.902 1.62 3.859 1.63 3.797 1.62 3.722 1.61 3.631 1.61 3.522 1.58 3.399 1.56 3.26 1.54 3.105 1.5 2.934 1.46 2.747 1.41 4.84 2.64 4.512 2.63 4.205 2.61 3.919 2.6 3.653 2.57 3.407 2.53 3.185 2.5 2.981 2.44 2.799 2.4zm-366.922-283.04L1726.74 2373.5l-5.31.54-5.54.33-5.73.14-5.9-.05-6.03-.22-6.13-.38-6.19-.53-6.22-.67-6.22-.8-6.19-.92-6.11-1.02-6.02-1.12-5.87-1.2-5.71-1.27-5.51-1.34-5.27-1.39-5-1.42-4.7-1.46-4.36-1.47-3.99-1.48-3.6-1.47-3.15-1.46-2.69-1.44-2.19-1.39-1.65-1.34L465.583 1214.78l1.65 1.35 2.185 1.39 2.688 1.43 3.156 1.46 3.593 1.48 3.993 1.48 4.364 1.47 4.699 1.45 5 1.43 5.27 1.39 5.507 1.34 5.707 1.27 5.877 1.2 6.013 1.12 6.116 1.02 6.184.92 6.22.8 6.223.67 6.191.53 6.129.38 6.03.22 5.899.05 5.736-.14 5.538-.33z"/><path d="M709.452 1425.57L1845.33 2561.45l-3.65-1.34-3.57-1.36-3.47-1.39-3.38-1.42-3.3-1.46-3.23-1.48-3.15-1.52-3.07-1.55-3.02-1.58-2.95-1.62-2.89-1.66-2.84-1.69-2.79-1.73-2.74-1.77-2.7-1.81-2.67-1.85-2.63-1.89-2.6-1.93-2.58-1.97-2.56-2.02-2.54-2.07-2.52-2.11-2.52-2.16L642.075 1386.19l2.52 2.16 2.528 2.11 2.54 2.06 2.558 2.02 2.578 1.98 2.603 1.93 2.632 1.89 2.664 1.85 2.703 1.81 2.742 1.77 2.789 1.73 2.839 1.69 2.891 1.65 2.951 1.62 3.012 1.59 3.079 1.55 3.148 1.51 3.224 1.49 3.301 1.45 3.384 1.43 3.471 1.39 3.562 1.36zm-108.934-78.36L1736.4 2483.09l-2.38-2.06-2.37-2.06L595.771 1343.09l2.368 2.05zm-18.379-16.51L1718.02 2466.58l-2.07-1.68L580.067 1329.02z"/><path d="M819.594 1454.89L1955.47 2590.77l-3.44-.79-3.46-.8-3.45-.79-3.47-.79-3.47-.8-3.48-.79-3.48-.81-3.48-.8-3.48-.81-3.49-.82-3.49-.82-3.48-.83-3.49-.84-3.48-.85-3.48-.86-3.48-.87-3.47-.89-3.47-.89-3.46-.91-3.46-.93-3.44-.94-3.44-.96-3.44-.98-3.42-1-3.41-1.01-3.4-1.04-3.39-1.06-3.37-1.08-3.37-1.1-3.35-1.13-3.33-1.15-3.32-1.18L709.452 1425.57l3.318 1.18 3.333 1.15 3.348 1.13 3.363 1.1 3.376 1.08 3.388 1.06 3.401 1.04 3.412 1.01 3.421 1 3.433.97 3.44.96 3.448.95 3.456.92 3.462.92 3.468.89 3.473.89 3.477.87 3.48.86 3.483.85 3.485.84 3.486.83 3.486.82 3.486.82 3.484.81 3.482.8 3.479.8 3.476.8 3.472.8 3.466.79 3.46.79 3.453.79zm105.928-703.131L2061.4 1887.64l-2.01-.81-2-.93-1.96-1.04-1.94-1.14-1.9-1.24-1.86-1.33-1.82-1.43-1.77-1.51-1.72-1.59-1.67-1.66L906.874 739.077l1.664 1.665 1.719 1.588 1.772 1.51 1.819 1.424 1.863 1.335 1.9 1.24 1.936 1.141 1.966 1.037 1.993.928zm206.828 13.616L2268.24 1901.26l3.6 3.86 3.55 3.92 3.48 3.97 3.41 4.04 3.34 4.09 3.25 4.15 3.16 4.21 3.07 4.28 2.95 4.34 2.85 4.41 2.73 4.47 2.6 4.54 2.47 4.61 2.32 4.68 2.19 4.76 2.03 4.82 1.86 4.9 1.71 4.98 1.52 5.05 1.35 5.13 1.16 5.21.96 5.28.76 5.38.55 5.45.34 5.54.11 5.62-.12 5.71-.35 5.8L1189.21 898.573l.35-5.797.12-5.71-.12-5.623-.33-5.537-.55-5.453-.76-5.37-.96-5.289-1.16-5.209-1.35-5.13-1.52-5.051-1.71-4.975-1.86-4.899-2.03-4.825-2.19-4.753-2.32-4.681-2.47-4.611-2.61-4.541-2.72-4.473-2.85-4.406-2.96-4.341-3.06-4.278-3.16-4.214-3.25-4.152-3.34-4.092-3.41-4.032-3.49-3.976-3.54-3.918zm-11.07-218.607L2257.16 1682.65l4.66 5.59 4.41 5.85 4.16 6.11 3.87 6.34 3.56 6.57 3.26 6.78 2.91 6.97 2.56 7.14 2.19 7.32 1.79 7.46 1.39 7.6.96 7.72.52 7.82.05 7.92-.43 7.99-.92 8.05-1.44 8.11-1.98 8.13-2.53 8.15-3.1 8.15L1147.17 692.542l3.1-8.154 2.53-8.152 1.98-8.133 1.44-8.101.92-8.054.43-7.993-.05-7.916-.52-7.824-.96-7.719-1.39-7.598-1.8-7.463-2.18-7.314-2.56-7.148-2.92-6.969-3.25-6.776-3.57-6.569-3.86-6.343-4.16-6.107-4.41-5.854z"/><path d="M1147.17 692.542L2283.05 1828.42l.02.07.02.07.02.07.02.06.02.07.02.07.03.07.02.07L1147.33 693.083l-.02-.068-.02-.068-.02-.068-.02-.067-.02-.068-.02-.067-.02-.067zm42.04 206.031L2325.09 2034.46l1.91 2.68 1.85 2.79 1.8 2.89 1.75 2.98 1.71 3.07 1.66 3.15 1.62 3.22 1.59 3.28 1.55 3.35 1.52 3.39 1.49 3.45 1.46 3.48 1.44 3.52 1.42 3.54 1.4 3.57 1.39 3.57 1.37 3.59 1.37 3.58 1.36 3.58 1.35 3.57 1.36 3.55 1.35 3.52 1.37 3.49 1.37 3.45 1.38 3.41 1.39 3.35 1.41 3.29 1.43 3.23 1.45 3.16 1.48 3.08 1.51 3 1.53 2.9-1135.88-1135.88-1.54-2.9-1.5-2.999-1.48-3.081-1.45-3.158-1.43-3.23-1.41-3.296-1.39-3.353-1.38-3.405-1.37-3.451-1.37-3.49-1.35-3.521-1.36-3.548-1.35-3.567-1.36-3.579-1.37-3.586-1.37-3.584-1.39-3.578-1.4-3.564-1.42-3.544-1.44-3.517-1.46-3.484-1.49-3.444-1.52-3.397-1.55-3.345-1.59-3.286-1.62-3.218-1.66-3.148-1.71-3.067-1.75-2.982-1.8-2.89-1.86-2.789z"/><path d="M1237.25 1004.26l1135.88 1135.88 2.13 3.94 2.03 3.89 1.93 3.84 1.84 3.79 1.78 3.73 1.71 3.68 1.65 3.64 1.62 3.57 1.59 3.53 1.57 3.47 1.56 3.41 1.56 3.36 1.57 3.31 1.6 3.24 1.64 3.19 1.68 3.14 1.74 3.07 1.8 3.02 1.89 2.95 1.97 2.9 2.07 2.84 2.19 2.77 2.31 2.72 2.44 2.65-1135.88-1135.88-2.44-2.66-2.31-2.71-2.19-2.78-2.07-2.83-1.97-2.9-1.89-2.96-1.8-3.01-1.74-3.08-1.68-3.13-1.64-3.19-1.6-3.25-1.57-3.3-1.57-3.36-1.55-3.41-1.57-3.48-1.59-3.52-1.62-3.58-1.65-3.63-1.71-3.68-1.78-3.74-1.84-3.78-1.93-3.84-2.03-3.89z"/><path d="M1582.87 1210.01l1135.88 1135.88.88.99.25 1.08-.34 1.15-.91 1.23-1.45 1.28-1.95 1.33-2.43 1.37-2.88 1.4-3.29 1.41-3.68 1.43-4.04 1.42-4.36 1.41-4.67 1.4-4.93 1.36-5.16 1.32-5.38 1.27-5.56 1.21-5.7 1.14-5.82 1.05-5.91.97-5.97.87-6 .75-6 .64-5.96.5-5.91.37-5.82.22-5.69.05-5.55-.11-5.37-.3-1135.88-1135.88 5.37.29 5.55.12 5.69-.06 5.82-.21 5.9-.37 5.97-.5 6-.64 6-.76 5.97-.86 5.91-.97 5.82-1.06 5.7-1.14 5.56-1.21 5.37-1.26 5.17-1.33 4.93-1.36 4.67-1.39 4.36-1.41 4.04-1.43 3.68-1.42 3.29-1.42 2.88-1.39 2.43-1.37 1.95-1.33 1.45-1.29.91-1.22.34-1.15-.25-1.08z"/><path d="M1468.12 1242.25L2604 2378.13l1.59 1.73 1.54 1.91 1.48 2.1 1.42 2.26 1.35 2.42 1.28 2.56 1.21 2.69 1.12 2.8 1.05 2.91.95 3 .87 3.08.77 3.14.68 3.2.57 3.23.47 3.26.35 3.28.24 3.28.13 3.26v3.25l-.12 3.2-.25 3.16-.38 3.09-.53 3.02-.66 2.93-.81 2.83-.95 2.71-1.11 2.59-1.27 2.45-1.42 2.3-1.59 2.14-1.76 1.95-1.93 1.77-1135.88-1135.88 1.93-1.77 1.76-1.96 1.59-2.13 1.42-2.3 1.27-2.45 1.11-2.59.95-2.72.81-2.82.66-2.93.52-3.02.39-3.1.25-3.15.12-3.21v-3.24l-.13-3.26-.24-3.28-.36-3.28-.46-3.26-.57-3.24-.68-3.19-.77-3.15-.87-3.07-.95-3-1.05-2.91-1.12-2.81-1.21-2.68-1.28-2.56-1.35-2.42-1.42-2.27-1.48-2.09-1.54-1.92z"/><path d="M1405.6 1173.75c14.473 13.092 49.178 26.36 49.178 26.36 27.914-2.042 42.937 9.646 65.811 14.463 12.54 1.663 40.502-9.638 55.59-6.892 35.231 6.41-56.728 34.678-112.904 30.542a62.66 62.66 0 0 1 4.844 4.03c17.296 17.302 25.818 69.71 4.289 87.498l.027.178c-11.576 11.503-25.78 22.038-37.73 34.585-28.24 28.247-50.833 46.947-90.367 61.057-35.3 12.713-73.426 20.839-110.141 29.319-10.984 2.285-73.795 25.688-102.049 40.535-53.454 28.09-47.336 56.521-95.634 46.192-9.879-7.064-8.473-54.574-8.473-67.279-.184-2.033-.604-4.209-1.144-6.467-.541 2.257-.96 4.434-1.144 6.467 0 12.705 1.406 60.215-8.473 67.279-48.298 10.329-42.18-18.102-95.634-46.192-28.253-14.848-91.064-38.25-102.049-40.535-36.716-8.479-74.842-16.605-110.141-29.319-39.534-14.111-62.127-32.81-90.367-61.057-11.681-12.265-25.517-22.608-36.946-33.81-23.072-16.788-14.561-70.831 3.063-88.452 1.827-1.681 3.715-3.222 5.657-4.631-55.265 6.878-155.582-23.293-119.036-29.941 15.087-2.746 43.05 8.555 55.59 6.892 22.874-4.817 37.897-16.505 65.811-14.463 0 0 34.704-13.267 49.178-26.36 27.43-24.824 65.961-51.636 98.87-70.918 42.758-22.44 46.136-56.294 69.48-98.568 18.01-33.165 29.267-86.094 53.756-112.654 2.263-2.719 5.271-6.803 9.841-11.116v-.435l.81-.318c5.365-4.894 12.778-9.998 23.421-13.684l.606.348v-.604c32.745-10.181 74.743-9.568 86.42-39.097-25.113-16.484-51.697-53.614-60.083-74.943-21.607-8.063-40.064-36.337-32.926-58.676a25.33 25.33 0 0 1 .335-1.037c-36.461-87.059 27.565-175.717 93.836-186.266 0 0 24.64-5.14 32.975 3.217 8.297-8.328 32.956-3.105 32.956-3.103 66.318 10.792 130.66 99.699 94.466 186.647l.169.541c6.802 21.262-9.587 47.9-29.819 57.371 40.233 38.702 76.753 85.809 71.692 148.119 20.648 28.058 31.495 75.216 48.043 105.689 23.343 42.274 26.721 76.128 69.48 98.568 32.909 19.283 71.44 46.094 98.87 70.918z"/></g><path d="M1468.12 1242.25c-35.305-32.474-93.197-12.7-129.907 5.649-66.361 32.473-125.671 46.593-199.094 38.122-36.409-2.798-48.698-7.8-116.426-7.266-59.809-.534-72.09 4.469-108.501 7.266-73.416 8.471-132.725-5.648-199.088-38.122-36.707-18.35-94.602-38.124-129.9-5.649-18.36 18.358-26.83 76.247 0 90.357l435.848 128.987v.922l1.559-.461 1.537.461v-.908l443.972-129.001c26.826-14.111 18.353-71.998 0-90.357z" fill="#212121"/><g fill="#e6bfa4"><path d="M1021.05 1432c-18.353-4.239-30.608 22.892-56.021 10.179-16.949-8.47-42.354-18.359-57.894-31.068-67.773-57.88-128.491-128.478-223.096-135.546-46.16-3.301-96.578 13.937-102.684 54.366 11.576 11.503 25.78 22.038 37.73 34.585 28.24 28.247 50.833 46.947 90.367 61.057 35.3 12.713 73.426 20.839 110.141 29.319 10.984 2.285 73.795 25.688 102.049 40.535 53.454 28.09 47.336 56.521 95.634 46.192 9.879-7.064 8.473-54.574 8.473-67.279 1.41-15.52 16.479-39.521-4.7-42.34z"/><path d="M1032.74 1432c18.353-4.239 30.608 22.892 56.021 10.179 16.949-8.47 42.354-18.359 57.894-31.068 67.773-57.88 128.491-128.478 223.096-135.546 46.16-3.301 96.578 13.937 102.684 54.366-11.576 11.503-25.78 22.038-37.73 34.585-28.24 28.247-50.833 46.947-90.367 61.057-35.3 12.713-73.426 20.839-110.141 29.319-10.984 2.285-73.795 25.688-102.049 40.535-53.454 28.09-47.336 56.521-95.634 46.192-9.879-7.064-8.473-54.574-8.473-67.279-1.41-15.52-16.479-39.521 4.7-42.34z"/></g><path d="M1173.65 880.491v-.435l-.81-.318c-5.365-4.894-12.778-9.998-23.421-13.684l-.606.348v-.604c-37.611-11.694-87.43-9.148-89.489-54.394.001-3.901-.056-7.799.393-11.682l-.392-.156v-38.453h-34.696-.632-.632-34.696v38.453l-.392.156c.449 3.883.392 7.781.393 11.682-2.059 45.247-51.878 42.7-89.489 54.394v.604l-.606-.348c-10.643 3.686-18.057 8.79-23.421 13.684l-.81.318v.435c-4.57 4.313-7.578 8.398-9.841 11.116-24.489 26.559-35.746 79.488-53.756 112.654-23.343 42.274-26.721 76.128-69.48 98.568-32.909 19.283-71.44 46.094-98.87 70.918-14.473 13.092-49.178 26.36-49.178 26.36-27.914-2.042-42.937 9.646-65.811 14.463-12.54 1.663-40.502-9.638-55.59-6.892-43.388 7.893 106.13 48.94 144.145 21.785l35.811-18.389c81.895-38.97 161.293-68.577 193.36-136.148 8.44-18.307 23.72-50.453 43.707-77.93a47.44 47.44 0 0 1 2.366-1.165c8.807 5.161 7.239 36.404 6.789 45.914h125.702.298.298 125.702c-.45-9.51-2.019-40.753 6.789-45.914a47.44 47.44 0 0 1 2.366 1.165c19.987 27.477 35.267 59.623 43.707 77.93 32.067 67.571 111.464 97.178 193.36 136.148l35.811 18.389c38.015 27.155 187.533-13.892 144.145-21.785-15.087-2.746-43.05 8.555-55.59 6.892-22.874-4.817-37.897-16.505-65.811-14.463 0 0-34.704-13.267-49.178-26.36-27.43-24.824-65.961-51.636-98.87-70.918-42.758-22.44-46.136-56.294-69.48-98.568-18.009-33.165-29.267-86.094-53.756-112.654-2.263-2.719-5.271-6.803-9.841-11.116z" fill="#f7c5a9"/><path d="M1149.44 1291.32c14.763 1.459 18.001 2.115 18.001-12.71-1.057-10.594-10.585-24.355-14.825-33.888-9.527-18.002-14.819-34.947-19.058-56.131-6.36-29.649-4.237-57.182 10.589-81.54 18.008-26.477 19.064-45.536 12.71-75.194-5.296-26.473-18.006-50.824-20.121-77.304-3.177-30.712 4.234-57.813 5.293-87.47l-29.649-5.718c0 56.12-27.535 98.489-85.785 98.489h-11.086c-58.241 0-85.775-42.369-85.775-98.489l-29.654 5.717c1.063 29.659 8.47 56.759 5.296 87.471-2.119 26.48-14.828 50.832-20.12 77.304-6.356 29.658-5.298 48.718 12.704 75.194 14.83 24.355 16.944 51.891 10.59 81.54-4.231 21.184-9.528 38.128-19.064 56.131-4.23 9.53-13.762 23.295-14.824 33.888 0 14.825 3.177 12.71 18.011 12.71 40.239 0 130.023-12.565 256.769 0z" fill="#43a047"/><path d="M1097.45 731.934c49.775 44.463 103.401 99.963 90.202 179.19-5.656 35.841-24.266 60.36-29.922 98.091-3.767 43.38-8.882 94.315-22.08 133.929 0-30.183-.556-75.454-9.986-105.637-9.438-35.839-18.869-67.902-9.438-105.637 7.548-26.398 21.307-37.717 19.424-64.127-1.885-35.833-17.451-66.814-38.203-91.346l.002-44.463z" fill="#212121"/><path d="M1108.83 696.597c-.363-26.839 32.083-24.96 38.506-3.514 8.117 25.37-16.785 58.391-41.835 60.776l3.328-57.262zm-177.725 0c.363-26.839-32.091-24.96-38.509-3.514-8.107 25.37 16.797 58.391 41.836 60.776l-3.327-57.262z" fill="#f7c5a9"/><path d="M1118.84 636.75c2.614 32.918 6.959 76.469-3.455 109.484-6.961 26.062-55.613 92.094-86.896 88.628h-17.936c-31.283 3.467-79.936-62.563-86.891-88.628-10.426-33.017-3.465-76.462-3.465-109.482.002-.001-7.547-104.973 85.544-121.53 0 0 102.085-17.598 113.1 121.528z" fill="#fcd2b5"/><g fill="#212121"><path d="M1022.46 515.614c1.483 58.481-21.188 75.28-59.943 102.679-38.757 27.411-40.568 56.779-55.035 100.48-64.156-94.721 6.201-201.359 79.289-212.993 0 0 35.254-7.355 35.689 9.834z"/><path d="M1017.06 515.602c-1.28 58.475 21.428 75.364 60.292 102.904 38.855 27.548 40.768 56.912 55.372 100.678 63.832-94.502-6.895-201.39-80.024-213.29 0-.002-35.278-7.474-35.64 9.707z"/></g></svg>